<?xml version="1.0" encoding="iso-8859-1"?>
<!-- Generator: Adobe Illustrator 19.0.0, SVG Export Plug-In . SVG Version: 6.00 Build 0)  -->
<svg version="1.1" id="Layer_1" xmlns="http://www.w3.org/2000/svg" xmlns:xlink="http://www.w3.org/1999/xlink" x="0px" y="0px"
	 viewBox="0 0 512 512" style="enable-background:new 0 0 512 512;" xml:space="preserve">
<g>
	<g>
		<path d="M417.185,0H94.815c-5.236,0-9.482,4.245-9.482,9.482v493.037c0,5.236,4.245,9.482,9.482,9.482h322.37
			c5.236,0,9.482-4.245,9.482-9.482V9.482C426.667,4.245,422.421,0,417.185,0z M407.704,493.037H104.296V18.963h303.407V493.037z"/>
	</g>
</g>
<g>
	<g>
		<path d="M369.745,37.926H142.255c-10.472,0-18.995,8.486-18.995,18.921v218.158c0,10.435,8.523,18.921,18.995,18.921h227.491
			c10.472,0,18.995-8.486,18.995-18.921V56.847C388.741,46.412,380.218,37.926,369.745,37.926z M369.745,274.963l-227.523,0.042
			V56.847l0.032,0.042l227.523-0.042L369.745,274.963z"/>
	</g>
</g>
<g>
	<g>
		<polygon points="170.667,350.815 170.667,322.37 151.704,322.37 151.704,350.815 123.259,350.815 123.259,369.778 
			151.704,369.778 151.704,398.222 170.667,398.222 170.667,369.778 199.111,369.778 199.111,350.815 		"/>
	</g>
</g>
<g>
	<g>
		<path d="M293.926,360.296c-15.685,0-28.444,12.759-28.444,28.444c0,15.685,12.759,28.444,28.444,28.444
			c15.685,0,28.444-12.759,28.444-28.444C322.37,373.056,309.611,360.296,293.926,360.296z M293.926,398.222
			c-5.227,0-9.481-4.255-9.481-9.482c0-5.227,4.255-9.481,9.481-9.481c5.227,0,9.482,4.255,9.482,9.481
			C303.407,393.968,299.153,398.222,293.926,398.222z"/>
	</g>
</g>
<g>
	<g>
		<path d="M341.333,312.889c-15.685,0-28.444,12.759-28.444,28.444c0,15.685,12.759,28.444,28.444,28.444
			c15.685,0,28.444-12.759,28.444-28.444C369.778,325.648,357.019,312.889,341.333,312.889z M341.333,350.815
			c-5.227,0-9.481-4.255-9.481-9.482c0-5.227,4.255-9.481,9.481-9.481c5.227,0,9.482,4.255,9.482,9.481
			C350.815,346.56,346.56,350.815,341.333,350.815z"/>
	</g>
</g>
<g>
	<g>
		<path d="M216.833,96.055c-3.704-3.704-9.704-3.704-13.408,0l-29.981,29.982c-3.704,3.704-3.704,9.704,0,13.407
			c1.852,1.852,4.278,2.778,6.704,2.778s4.852-0.926,6.704-2.778l29.982-29.981C220.537,105.759,220.537,99.759,216.833,96.055z"/>
	</g>
</g>
<g>
	<g>
		<path d="M272.185,88.111c-3.704-3.704-9.704-3.704-13.407,0l-94.815,94.815c-3.704,3.704-3.704,9.704,0,13.407
			c1.852,1.852,4.278,2.778,6.704,2.778c2.426,0,4.852-0.926,6.704-2.778l94.815-94.815
			C275.889,97.815,275.889,91.815,272.185,88.111z"/>
	</g>
</g>
<g>
</g>
<g>
</g>
<g>
</g>
<g>
</g>
<g>
</g>
<g>
</g>
<g>
</g>
<g>
</g>
<g>
</g>
<g>
</g>
<g>
</g>
<g>
</g>
<g>
</g>
<g>
</g>
<g>
</g>
</svg>
