<?xml version="1.0" encoding="iso-8859-1"?>
<!-- Generator: Adobe Illustrator 19.0.0, SVG Export Plug-In . SVG Version: 6.00 Build 0)  -->
<svg version="1.1" id="Layer_1" xmlns="http://www.w3.org/2000/svg" xmlns:xlink="http://www.w3.org/1999/xlink" x="0px" y="0px"
	 viewBox="0 0 512 512" style="enable-background:new 0 0 512 512;" xml:space="preserve">
<path style="fill:#9B9B9B;" d="M411.826,66.783v55.652h-89.043V66.783c0-12.295,9.966-22.261,22.261-22.261h44.522
	C401.86,44.522,411.826,54.488,411.826,66.783z M166.956,44.522h-44.522c-12.295,0-22.261,9.966-22.261,22.261v55.652h89.043V66.783
	C189.217,54.488,179.251,44.522,166.956,44.522z"/>
<path style="fill:#666666;" d="M100.174,66.783h89.043v33.391h-89.043V66.783z M322.783,66.783v33.391h89.043V66.783H322.783z"/>
<path style="fill:#C1C1C1;" d="M161.446,412.679l-22.59,26.817c-14.946,17.742-36.966,27.983-60.17,27.983l0,0
	c-49.253,0-86.391-44.733-77.314-93.125l41.483-221.166c6.977-37.192,39.462-64.144,77.314-64.144H391.83
	c37.853,0,70.339,26.951,77.314,64.142l41.483,221.166c9.078,48.393-28.06,93.126-77.313,93.126l0,0
	c-23.204,0-45.223-10.241-60.169-27.983l-22.59-26.817c-14.946-17.742-36.966-27.983-60.169-27.983h-68.771
	C198.411,384.696,176.392,394.937,161.446,412.679z"/>
<g>
	<path style="fill:#9B9B9B;" d="M510.629,374.353c9.077,48.392-28.061,93.125-77.314,93.125l0,0
		c-23.204,0-45.223-10.241-60.169-27.983l-22.59-26.817c-14.946-17.742-36.966-27.983-60.169-27.983h-68.771
		c-23.204,0-45.223,10.241-60.169,27.983l-22.59,26.817c-14.948,17.742-36.968,27.983-60.171,27.983l0,0
		c-49.253,0-86.391-44.733-77.314-93.125l13.668-72.873c14.176,19.489,37.157,32.433,63.646,32.433l0,0
		c23.204,0,45.223-10.241,60.169-27.983l22.59-26.817c14.946-17.742,36.966-27.983,60.169-27.983h68.77
		c23.204,0,45.223,10.241,60.169,27.983l22.59,26.817c14.948,17.742,36.968,27.983,60.171,27.983l0,0
		c26.49,0,49.47-12.944,63.646-32.433L510.629,374.353z"/>
	<path style="fill:#9B9B9B;" d="M272.696,166.956h-33.391c-9.22,0-16.696-7.475-16.696-16.696l0,0
		c0-9.22,7.475-16.696,16.696-16.696h33.391c9.22,0,16.696,7.475,16.696,16.696l0,0
		C289.391,159.481,281.916,166.956,272.696,166.956z"/>
</g>
<path style="fill:#666666;" d="M166.956,200.348v111.304c0,12.295-9.966,22.261-22.261,22.261c-12.295,0-22.261-9.966-22.261-22.261
	V200.348c0-12.295,9.966-22.261,22.261-22.261C156.99,178.087,166.956,188.053,166.956,200.348z M289.391,278.261
	c0,12.295,9.966,22.261,22.261,22.261c12.295,0,22.261-9.966,22.261-22.261V256h-44.522V278.261z M400.696,256v22.261
	c0,12.295,9.966,22.261,22.261,22.261c12.295,0,22.261-9.966,22.261-22.261V256H400.696z M345.043,333.913
	c0,12.295,9.966,22.261,22.261,22.261c12.295,0,22.261-9.966,22.261-22.261v-22.261h-44.522V333.913z M345.043,222.609
	c0,12.295,9.966,22.261,22.261,22.261c12.295,0,22.261-9.966,22.261-22.261v-22.261h-44.522V222.609z"/>
<path style="fill:#828282;" d="M222.609,256L222.609,256c0,12.295-9.966,22.261-22.261,22.261H89.043
	c-12.295,0-22.261-9.966-22.261-22.261l0,0c0-12.295,9.966-22.261,22.261-22.261h111.304
	C212.642,233.739,222.609,243.705,222.609,256z"/>
<path style="fill:#FFE954;" d="M367.304,178.087c12.295,0,22.261,9.966,22.261,22.261c0,12.295-9.966,22.261-22.261,22.261
	c-12.295,0-22.261-9.966-22.261-22.261C345.043,188.053,355.01,178.087,367.304,178.087z"/>
<path style="fill:#91F18B;" d="M367.304,289.391c12.295,0,22.261,9.966,22.261,22.261c0,12.295-9.966,22.261-22.261,22.261
	c-12.295,0-22.261-9.966-22.261-22.261C345.043,299.357,355.01,289.391,367.304,289.391z"/>
<path style="fill:#82CEAD;" d="M289.391,256c0-12.295,9.966-22.261,22.261-22.261c12.295,0,22.261,9.966,22.261,22.261
	s-9.966,22.261-22.261,22.261C299.357,278.261,289.391,268.295,289.391,256z"/>
<path style="fill:#FF8355;" d="M400.696,256c0-12.295,9.966-22.261,22.261-22.261c12.295,0,22.261,9.966,22.261,22.261
	s-9.966,22.261-22.261,22.261C410.662,278.261,400.696,268.295,400.696,256z"/>
<g>
</g>
<g>
</g>
<g>
</g>
<g>
</g>
<g>
</g>
<g>
</g>
<g>
</g>
<g>
</g>
<g>
</g>
<g>
</g>
<g>
</g>
<g>
</g>
<g>
</g>
<g>
</g>
<g>
</g>
</svg>
