<?xml version="1.0" encoding="iso-8859-1"?>
<!-- Generator: Adobe Illustrator 19.0.0, SVG Export Plug-In . SVG Version: 6.00 Build 0)  -->
<svg version="1.1" id="Layer_1" xmlns="http://www.w3.org/2000/svg" xmlns:xlink="http://www.w3.org/1999/xlink" x="0px" y="0px"
	 viewBox="0 0 330 330" style="enable-background:new 0 0 330 330;" xml:space="preserve">
<path id="XMLID_350_" d="M235,105h-55V50c0-8.284-6.716-15-15-15c-8.284,0-15,6.716-15,15v55H95c-52.383,0-95,42.617-95,95
	s42.617,95,95,95c21.181,0,41.659-7.065,58.283-20h23.434c16.624,12.935,37.102,20,58.283,20c52.383,0,95-42.617,95-95
	S287.383,105,235,105z M115,215h-5v5c0,8.284-6.716,15-15,15c-8.284,0-15-6.716-15-15v-5h-5c-8.284,0-15-6.716-15-15s6.716-15,15-15
	h5v-5c0-8.284,6.716-15,15-15c8.284,0,15,6.716,15,15v5h5c8.284,0,15,6.716,15,15S123.284,215,115,215z M259.748,196.465
	l-28.216,28.216c-0.022,0.022-0.04,0.047-0.063,0.069c-0.356,0.355-0.731,0.69-1.12,1.006c-2.754,2.257-6.123,3.387-9.492,3.387
	c-3.373,0-6.746-1.133-9.501-3.395c-0.385-0.313-0.755-0.646-1.106-0.998c-0.252-0.252-0.482-0.523-0.714-0.792
	c-4.79-5.516-4.896-13.688-0.292-19.308c0.316-0.389,0.65-0.764,1.006-1.12c0.022-0.023,0.049-0.042,0.071-0.064l28.214-28.214
	c5.857-5.857,15.355-5.857,21.213,0C265.605,181.109,265.605,190.607,259.748,196.465z"/>
<g>
</g>
<g>
</g>
<g>
</g>
<g>
</g>
<g>
</g>
<g>
</g>
<g>
</g>
<g>
</g>
<g>
</g>
<g>
</g>
<g>
</g>
<g>
</g>
<g>
</g>
<g>
</g>
<g>
</g>
</svg>
